<?xml version="1.0" encoding="UTF-8" standalone="no"?>
<!-- Created with Inkscape (http://www.inkscape.org/) -->

<svg
   version="1.1"
   id="svg48"
   width="650"
   height="520"
   viewBox="0 0 650 520"
   sodipodi:docname="gym.svg"
   xml:space="preserve"
   inkscape:version="1.2.2 (1:1.2.2+202212051552+b0a8486541)"
   xmlns:inkscape="http://www.inkscape.org/namespaces/inkscape"
   xmlns:sodipodi="http://sodipodi.sourceforge.net/DTD/sodipodi-0.dtd"
   xmlns="http://www.w3.org/2000/svg"
   xmlns:svg="http://www.w3.org/2000/svg"><defs
     id="defs52" /><sodipodi:namedview
     id="namedview50"
     pagecolor="#505050"
     bordercolor="#eeeeee"
     borderopacity="1"
     inkscape:showpageshadow="0"
     inkscape:pageopacity="0"
     inkscape:pagecheckerboard="0"
     inkscape:deskcolor="#505050"
     showgrid="false"
     inkscape:zoom="0.46680231"
     inkscape:cx="230.29021"
     inkscape:cy="232.43244"
     inkscape:window-width="1310"
     inkscape:window-height="704"
     inkscape:window-x="56"
     inkscape:window-y="27"
     inkscape:window-maximized="1"
     inkscape:current-layer="g54"><inkscape:grid
       type="xygrid"
       id="grid493" /></sodipodi:namedview><g
     inkscape:groupmode="layer"
     inkscape:label="Image"
     id="g54"><path
       style="fill:#000000"
       d="m 297.18187,710.3743 c -5.71383,-1.1019 -10.26908,-9.4177 -8.80652,-16.0767 1.71932,-7.828 12.58203,-11.7655 19.47095,-7.0578 4.42287,3.0224 4.73208,4.2196 1.47332,5.7044 -2.19048,0.9981 -2.95313,0.9407 -4.35464,-0.3277 -3.92509,-3.5521 -11.04159,-0.3245 -11.04159,5.0078 0,3.8504 4.43284,7.8128 7.80032,6.9725 1.48483,-0.3706 3.40005,-1.3046 4.25606,-2.0756 1.33867,-1.2057 1.87212,-1.1807 3.81345,0.1791 2.1907,1.5344 2.20374,1.6408 0.44362,3.6177 -1.94643,2.1863 -7.43162,4.8477 -9.53133,4.6247 -0.70517,-0.075 -2.2908,-0.3307 -3.52364,-0.5684 z m -80.25848,-12.7954 v -12.5 h 6.88922 c 8.87906,0 11.50489,1.829 11.68913,8.1419 0.07,2.3969 0.47109,5.8026 0.89141,7.568 0.65942,2.7698 0.34735,3.6268 -2.27585,6.25 -2.81399,2.814 -3.56635,3.0401 -10.11699,3.0401 h -7.07692 z m 13.5,4 c 0,-1.6191 -0.66667,-2 -3.5,-2 -2.89761,0 -3.55646,0.3984 -3.82807,2.315 -0.30009,2.1176 -0.002,2.2882 3.5,2 3.0564,-0.2515 3.82807,-0.7182 3.82807,-2.315 z m -0.74379,-9.25 c 0.27708,-0.8438 -0.75397,-1.25 -3.17288,-1.25 -3.41843,0 -4.41995,0.83 -2.87075,2.3792 1.10562,1.1057 5.58459,0.2688 6.04363,-1.1292 z m 10.24379,5.25 v -12.5 h 3.0413 c 2.56652,0 3.5242,0.7768 6.1345,4.9759 1.70125,2.7367 3.47732,4.7385 3.94683,4.4483 0.4695,-0.2902 2.02674,-2.5293 3.46053,-4.9759 2.13629,-3.6453 3.13128,-4.4483 5.51186,-4.4483 h 2.90498 v 12.5664 12.5664 l -2.75,-0.3164 c -2.6418,-0.304 -2.76183,-0.5669 -3.05072,-6.6822 l -0.30073,-6.3658 -2.92725,4.6158 c -1.60999,2.5387 -3.1194,4.6158 -3.35425,4.6158 -0.23486,0 -1.70727,-2.1375 -3.27203,-4.75 l -2.84502,-4.75 -0.29569,6.75 c -0.2954,6.7434 -0.29857,6.75 -3.25,6.75 h -2.95431 z m 30,0 v -12.5 h 8.06642 8.06642 l -0.31642,2.75 c -0.28977,2.5184 -0.71651,2.7757 -5.06642,3.0548 -3.33492,0.214 -4.75,0.7353 -4.75,1.75 0,1.0461 1.24249,1.4452 4.5,1.4452 4.33333,0 4.5,0.1111 4.5,3 0,2.8889 -0.16667,3 -4.5,3 -3.83333,0 -4.5,0.2963 -4.5,2 0,1.7333 0.66667,2 5,2 4.88889,0 5,0.067 5,3 v 3 h -8 -8 z m 50,3 v -9.5 h -3 c -2.66667,0 -3,-0.3333 -3,-3 v -3 h 9 9 v 3 c 0,2.6667 -0.33333,3 -3,3 h -3 v 9.5 9.5 h -3 -3 z m 14,-3 v -12.5 h 8.06642 8.06642 l -0.31642,2.75 c -0.28977,2.5184 -0.71651,2.7757 -5.06642,3.0548 -3.33492,0.214 -4.75,0.7353 -4.75,1.75 0,1.0461 1.24249,1.4452 4.5,1.4452 4.33333,0 4.5,0.1111 4.5,3 0,2.8889 -0.16667,3 -4.5,3 -3.83333,0 -4.5,0.2963 -4.5,2 0,1.7333 0.66667,2 5,2 4.88889,0 5,0.067 5,3 v 3 h -8 -8 z m 29,0 v -12.5 h 3 c 2.83333,0 3,0.2222 3,4 0,2.2 0.3375,3.9893 0.75,3.9763 0.4125,-0.013 2.07382,-1.813 3.69183,-4 2.55278,-3.4505 3.45669,-3.9763 6.83506,-3.9763 h 3.89324 l -4.08506,5.1306 c -2.24679,2.8219 -4.08507,5.556 -4.08507,6.076 0,0.5199 2.025,3.5769 4.5,6.7934 2.475,3.2164 4.5,6.1073 4.5,6.424 0,0.3168 -1.54704,0.576 -3.43786,0.576 -2.92778,0 -3.91614,-0.666 -6.66131,-4.4886 -3.68511,-5.1314 -5.90083,-4.7142 -5.90083,1.111 0,3.0862 -0.25881,3.3776 -3,3.3776 h -3 z m 34.71258,11.8792 c -0.39192,-0.3919 -0.71258,-6.0375 -0.71258,-12.5459 v -11.8333 h 3.44231 c 3.08959,0 3.73002,0.5122 6.25,4.999 1.54423,2.7494 3.11923,4.9994 3.5,5 0.38078,5e-4 1.95578,-2.2486 3.5,-4.998 2.4694,-4.3967 3.19927,-4.9991 6.05769,-5 l 3.25,-10e-4 v 12.5 12.5 h -2.95431 c -2.95143,0 -2.9546,-0.01 -3.25,-6.75 l -0.29569,-6.75 -2.84502,4.75 c -1.56476,2.6125 -3.03717,4.75 -3.27203,4.75 -0.23485,0 -1.74426,-2.0771 -3.35425,-4.6158 l -2.92725,-4.6158 -0.30073,6.3658 c -0.2824,5.978 -0.45531,6.3838 -2.83814,6.6617 -1.39559,0.1628 -2.85809,-0.025 -3.25,-0.4167 z m 29.95409,-0.046 c -0.36667,-0.3666 -0.66667,-5.9916 -0.66667,-12.5 v -11.8333 h 8 8 v 3 c 0,2.8889 -0.16667,3 -4.5,3 -3.33333,0 -4.5,0.3889 -4.5,1.5 0,1.0833 1.11111,1.5 4,1.5 3.77778,0 4,0.1667 4,3 0,2.8333 -0.22222,3 -4,3 -3.33333,0 -4,0.3333 -4,2 0,1.7037 0.66667,2 4.5,2 4.33333,0 4.5,0.1111 4.5,3 v 3 h -7.33333 c -4.03334,0 -7.63334,-0.3 -8,-0.6667 z m 29.62308,-1.3333 c -0.44131,-1.6876 -1.36402,-2 -5.90638,-2 h -5.38337 l -0.0172,-3.25 c -0.009,-1.7875 1.45304,-6.4971 3.25,-10.4657 3.07143,-6.7834 3.46194,-7.2178 6.5172,-7.25 1.7875,-0.019 3.25,0.2035 3.25,0.4942 0,0.2907 -1.35,3.2029 -3,6.4715 -3.52035,6.9738 -3.65755,8 -1.06955,8 1.2406,0 2.04464,-0.8041 2.25,-2.25 0.45013,-3.1694 5.81955,-3.8938 5.81955,-0.7851 0,1.1538 0.675,2.3569 1.5,2.6735 0.825,0.3165 1.5,1.6665 1.5,3 0,1.3334 -0.675,2.6834 -1.5,3 -0.825,0.3165 -1.5,1.4274 -1.5,2.4686 0,2.7234 -4.99456,2.6298 -5.71025,-0.107 z m 16.71025,-7.4367 v -9.4366 l -3.25,-0.3134 c -2.70808,-0.2611 -3.30276,-0.7719 -3.56642,-3.0633 l -0.31642,-2.75 h 9.63284 9.63283 l -0.31642,2.75 c -0.24853,2.16 -0.90645,2.8179 -3.06642,3.0664 l -2.74999,0.3164 v 9.4336 9.4336 h -3 -3 z m 13.99999,-3.0633 v -12.5 h 8.06642 8.06642 l -0.31642,2.75 c -0.28977,2.5184 -0.71651,2.7757 -5.06642,3.0548 -3.33492,0.214 -4.75,0.7353 -4.75,1.75 0,1.0461 1.24249,1.4452 4.5,1.4452 4.33333,0 4.5,0.1111 4.5,3 0,2.8889 -0.16667,3 -4.5,3 -3.83333,0 -4.5,0.2963 -4.5,2 0,1.7333 0.66667,2 5,2 4.88889,0 5,0.067 5,3 v 3 h -8 -8 z m -382.30926,3.8938 -7.809295,-4.5037 -4.440743,2.9414 c -5.75512,3.812 -12.01684,4.7887 -17.1064,2.6683 -7.78285,-3.2425 -14.77906,-12.4378 -17.40854,-22.8804 -0.95132,-3.7781 -1.86516,-5.0194 -4.98654,-6.7737 -7.38782,-4.1522 -7.44914,-11.4958 -0.13048,-15.6271 3.09597,-1.7477 3.96616,-3.0219 5.3957,-7.9012 2.38842,-8.152 7.53041,-16.2033 12.63172,-19.7785 3.72239,-2.6088 5.23243,-3.0389 10.66843,-3.0389 5.48732,0 6.92723,0.4193 10.79097,3.1428 l 4.458693,3.1427 7.872895,-4.363 c 4.33007,-2.3997 9.13455,-4.3765 10.67661,-4.3928 1.54206,-0.016 6.79519,2.1078 11.67363,4.7203 l 8.86988,4.75 2.82637,-2.5614 c 12.96721,-11.7513 30.79456,-1.5728 36.32923,20.7421 0.76521,3.0852 1.92285,4.7283 4.41781,6.2702 6.52105,4.0303 6.28944,9.9599 -0.56318,14.4188 -1.76561,1.1489 -3.02504,3.2386 -3.79526,6.2974 -3.57443,14.1954 -14.08642,25.3329 -23.91007,25.3329 -4.00927,0 -9.88432,-2.3999 -12.96938,-5.2977 l -2.34451,-2.2023 -9.16913,4.7861 c -5.04302,2.6323 -10.29413,4.7468 -11.66913,4.6988 -1.375,-0.048 -6.01418,-2.114 -10.30928,-4.5911 z m -18.595008,-5.1094 c 1.59736,-0.9436 2.90429,-2.0952 2.90429,-2.559 0,-0.4639 -0.4792,-0.5473 -1.06488,-0.1853 -2.10635,1.3018 -7.91838,-0.6772 -10.97981,-3.7387 -1.71738,-1.7173 -4.18513,-5.5252 -5.48388,-8.4619 -2.29375,-5.1866 -2.47749,-5.3395 -6.4164,-5.3395 -2.23027,0 -4.05503,0.4331 -4.05503,0.9625 0,3.5502 4.82836,12.9185 8.60422,16.6943 3.87131,3.8713 4.84528,4.3432 8.96517,4.3432 2.57139,0 5.91056,-0.7612 7.52632,-1.7156 z m 70.404278,-0.7391 3,-2.4448 -3.5,0.5311 c -2.6315,0.3994 -4.3626,-0.053 -6.9762,-1.824 -7.44773,-5.046 -11.0238,-14.1255 -11.0238,-27.9891 v -8.8185 h -3.88337 c -4.46277,0 -5.09178,1.175 -5.0856,9.5 0.009,12.5721 5.46166,26.8079 11.96876,31.25 4.62881,3.1598 11.48261,3.0693 15.50021,-0.2047 z m 1.05887,-10.0135 c 1.90418,-1.4403 1.90087,-1.4688 -0.17401,-1.5 -7.29912,-0.1098 -12.84813,-13.6663 -10.40704,-25.425 1.46555,-7.0595 4.68955,-11.8123 8.95821,-13.2062 l 3.36678,-1.0994 -3.06283,-1.0677 c -14.08952,-4.9116 -21.45298,29.4702 -8.70811,40.6603 3.86564,3.3941 7.02325,3.9099 10.027,1.638 z m -67.558858,-8.4152 c 0,-0.4858 -0.90602,-1.1203 -2.01337,-1.4099 -2.44624,-0.6397 -4.98663,-6.3488 -4.98663,-11.2067 0,-4.3856 2.3759,-10.3233 4.4491,-11.1189 0.84668,-0.3249 1.30268,-0.9737 1.01333,-1.4419 -1.00438,-1.6251 -4.82951,0.7556 -6.64099,4.1333 -3.07639,5.7363 -2.13528,15.7132 1.90315,20.1757 1.63056,1.8017 6.27541,2.4445 6.27541,0.8684 z m 73.942678,-1.0593 c 4.71115,-4.7112 5.09584,-16.5759 0.70303,-21.6828 -2.62529,-3.0521 -7.55763,-3.9303 -10.25388,-1.8258 -1.75104,1.3668 -1.60441,1.4572 1.97013,1.214 3.13025,-0.2129 4.22465,0.2154 5.77611,2.2607 2.88234,3.7999 3.41268,9.2459 1.41083,14.4877 -2.01889,5.2864 -5.87939,7.125 -8.22496,3.9172 -2.43833,-3.3346 -3.5658,-9.4339 -2.5116,-13.5872 0.86608,-3.4121 0.77031,-3.8411 -0.85741,-3.8411 -4.2437,0 -3.40188,14.553 1.10237,19.0573 2.56667,2.5667 8.31871,2.5667 10.88538,0 z m -95.442678,-3.0573 c -0.33992,-0.55 -2.13992,-1 -4,-1 -1.86008,0 -3.66008,0.45 -4,1 -0.37794,0.6115 1.17596,1 4,1 2.82405,0 4.37794,-0.3885 4,-1 z m 93.499988,-7.9225 c 0,-3.9296 -1.43656,-6.1169 -3.95,-6.0141 -0.9508,0.039 -0.6802,0.413 0.7,0.9677 1.72786,0.6946 2.25,1.7104 2.25,4.3776 0,1.9103 -0.45,3.7514 -1,4.0913 -0.55,0.3399 -1,1.0966 -1,1.6814 0,0.6706 0.55411,0.6036 1.5,-0.1814 0.83574,-0.6936 1.5,-2.8735 1.5,-4.9225 z m -35.18764,1.1725 c -0.28773,-1.5062 -1.93486,-1.8267 -11.82333,-2.3005 -7.33158,-0.3514 -9.49877,-0.662 -5.98902,-0.8586 16.83271,-0.9426 16.73339,-1.8032 -0.22432,-1.9439 l -17.724318,-0.147 -1.4858,2.8732 c -0.81719,1.5803 -1.20374,3.1553 -0.85901,3.5 0.34473,0.3447 9.134783,0.6268 19.533438,0.6268 17.46703,0 18.8812,-0.1333 18.57236,-1.75 z m -58.047008,-8.0872 c 0.64484,-3.7604 1.45959,-7.5854 1.81054,-8.5 0.53656,-1.3982 -0.0761,-1.6628 -3.85018,-1.6628 -4.47634,0 -4.49124,0.012 -5.60698,4.4428 -0.6153,2.4435 -1.11872,6.2685 -1.11872,8.5 0,4.0305 0.025,4.0572 3.79645,4.0572 h 3.79645 z m 68.484648,-6.8685 c -1.2375,-0.2384 -3.2625,-0.2384 -4.49999,0 -1.2375,0.2383 -0.225,0.4333 2.24999,0.4333 2.475,0 3.4875,-0.195 2.25,-0.4333 z m 6.74646,-9.7877 c 1.72259,-3.2187 5.59459,-5.7353 10.00354,-6.5019 l 3.5,-0.6085 -3.20034,-1.6981 c -7.0973,-3.7658 -13.7955,-0.8702 -19.78232,8.5519 l -1.74735,2.75 h 4.94602 c 4.24882,0 5.13414,-0.3515 6.28045,-2.4934 z m -59.496448,-6.2638 4,-0.9443 -3.71788,-1.6492 c -4.79065,-2.1252 -7.50832,-2.081 -11.74443,0.1908 -5.70792,3.0612 -5.14224,4.4239 1.59744,3.848 3.22568,-0.2756 7.66487,-0.926 9.86487,-1.4453 z m 132.499988,12.2572 v -23.5 h 8.25 c 9.37742,0 13.55456,1.7838 16.20145,6.9024 2.18827,4.2316 1.97377,10.2836 -0.47481,13.3964 l -2.02335,2.5723 2.01961,3.3126 c 2.6752,4.3878 2.58275,9.685 -0.24283,13.9147 -3.32975,4.9843 -7.89444,6.8945 -16.48007,6.8963 l -7.25,10e-4 z m 15.36514,13.4274 c 1.44917,-1.1399 2.63486,-2.9399 2.63486,-4 0,-2.8835 -3.59468,-5.9274 -7,-5.9274 h -3 v 6 c 0,5.6421 0.14108,6 2.36514,6 1.30083,0 3.55083,-0.9327 5,-2.0726 z m 0.41235,-19.4841 c 4.63811,-3.2487 1.7853,-9.4433 -4.34892,-9.4433 h -3.42857 v 5.5 c 0,5.3465 0.0775,5.5 2.77749,5.5 1.52763,0 3.77763,-0.7005 5,-1.5567 z m 16.22251,27.8037 c 0,-1.6807 6.25208,-37.3693 7.54135,-43.0482 0.47431,-2.0891 0.99862,-2.2734 5.69164,-2 l 5.1692,0.3012 3.74726,21.5 c 2.06099,11.825 3.77049,22.2875 3.7989,23.25 0.0408,1.3836 -0.78582,1.75 -3.94835,1.75 -3.6,0 -4,-0.25 -4,-2.5 0,-2.3286 -0.33797,-2.5 -4.93045,-2.5 -4.35171,0 -4.96796,0.2641 -5.25,2.25 -0.25668,1.8073 -1.05733,2.311 -4.06955,2.5604 -3.1095,0.2573 -3.75,-0.01 -3.75,-1.5634 z m 15.92386,-12.497 c -0.16502,-4.8767 -2.66615,-17.1623 -3.20644,-15.75 -0.6911,1.8065 -2.71742,13.9848 -2.71742,16.3319 0,1.1868 0.86564,1.6681 3,1.6681 2.467,0 2.98647,-0.3998 2.92386,-2.25 z m 19.07614,-9.25 v -23.5 h 3.95794 3.95793 l 0.29207,7.75 0.29206,7.75 5.28047,-7.75 c 5.10842,-7.4975 5.41097,-7.75 9.28519,-7.75 4.64602,0 4.74409,-0.4058 -2.67276,11.0595 -2.4161,3.7349 -4.3929,7.2263 -4.3929,7.7587 0,0.5324 2.7,6.6892 6,13.6818 3.3,6.9925 6,13.1156 6,13.6069 0,0.4912 -1.80113,0.8931 -4.00251,0.8931 h -4.00251 l -4.6878,-10.1 c -4.1828,-9.0119 -4.82888,-9.907 -5.99749,-8.3089 -0.83079,1.1362 -1.30969,4.8293 -1.30969,10.1 v 8.3089 h -4 -4 z m 36,0 v -23.5 h 4 4 v 9.5 9.5 h 5 5 v -9.5 -9.5 h 3.89604 3.89604 l 0.67941,14.25 c 0.37368,7.8375 0.53296,18.3 0.35396,23.25 l -0.32545,9 h -4 -4 l -0.28621,-9.75 -0.28621,-9.75 h -4.96379 -4.96379 v 10 10 h -4 -4 z m 34.57914,20.75 c 0.29102,-1.5125 2.20092,-11.975 4.24421,-23.25 l 3.71507,-20.5 5.14055,-0.2991 c 4.91956,-0.2863 5.16546,-0.1788 5.72023,2.5 0.83742,4.0436 7.6008,42.8884 7.6008,43.6544 0,0.3546 -1.7687,0.6447 -3.93045,0.6447 -3.31467,0 -3.98051,-0.3525 -4.25,-2.25 -0.27127,-1.9101 -1.01893,-2.2953 -4.94863,-2.5499 -4.23768,-0.2745 -4.68319,-0.084 -5.26905,2.25 -0.55106,2.1956 -1.18961,2.5499 -4.59592,2.5499 -3.77719,0 -3.93204,-0.1243 -3.42681,-2.75 z m 15.80727,-10.0662 c 0.54301,-0.8786 -1.16519,-14.7063 -2.1228,-17.1838 -0.6524,-1.6879 -3.14499,9.7409 -3.21693,14.75 -0.0401,2.7918 0.29747,3.25 2.3943,3.25 1.34254,0 2.66798,-0.3673 2.94543,-0.8162 z m 19.61359,-10.6234 v -23.5604 h 8.2656 c 9.71772,0 14.06399,1.8128 16.96784,7.0773 2.24676,4.0731 1.9028,11.0097 -0.68788,13.8723 -1.55322,1.7163 -1.56285,2.1163 -0.11826,4.9098 1.09037,2.1085 1.5727,5.8167 1.5727,12.0909 v 9.0497 h -4 -4 v -8.345 c 0,-9.4609 -1.27873,-11.655 -6.79253,-11.655 h -3.13505 l -0.28621,9.75 -0.28621,9.75 -3.75,0.3104 -3.75,0.3103 z m 16.77749,-6.1171 c 4.74285,-3.322 1.54555,-9.4433 -4.93248,-9.4433 h -3.84501 v 5.5 5.5 h 3.27749 c 1.80263,0 4.27763,-0.7005 5.5,-1.5567 z m 20.22251,6.0567 v -23.5 h 11 11 v 4 4 h -7 -7 v 5.5 5.5 h 7 7 v 4 4 h -7 -7 v 6 6 h 7 7 v 4 4 h -11 -11 z m 35.07253,2.25 c -2.31987,-11.6875 -4.45901,-22.2625 -4.75364,-23.5 -0.48815,-2.0503 -0.1773,-2.25 3.5018,-2.25 h 4.03751 l 1.04758,5.25 c 0.57617,2.8875 1.793,9.4276 2.70408,14.5335 0.91108,5.1059 1.8685,9.0714 2.12761,8.8123 0.49359,-0.4935 2.19801,-9.0789 4.23772,-21.3458 l 1.20551,-7.25 h 3.90964 c 2.15031,0 3.90965,0.3658 3.90965,0.8129 0,0.447 -2.025,10.8812 -4.49999,23.1871 -2.475,12.3058 -4.5,22.515 -4.5,22.6871 0,0.1721 -1.95964,0.3129 -4.35476,0.3129 h -4.35477 z m 25.92746,19.497 c 0,-1.6807 6.25208,-37.3693 7.54135,-43.0482 0.47431,-2.0891 0.99862,-2.2734 5.69164,-2 l 5.1692,0.3012 3.74726,21.5 c 2.06099,11.825 3.77049,22.2875 3.7989,23.25 0.0408,1.3836 -0.78582,1.75 -3.94835,1.75 -3.6,0 -4,-0.25 -4,-2.5 0,-2.3286 -0.33797,-2.5 -4.93045,-2.5 -4.35171,0 -4.96796,0.2641 -5.25,2.25 -0.25668,1.8073 -1.05733,2.311 -4.06955,2.5604 -3.1095,0.2573 -3.75,-0.01 -3.75,-1.5634 z m 15.92386,-12.497 c -0.16502,-4.8767 -2.66615,-17.1623 -3.20644,-15.75 -0.6911,1.8065 -2.71742,13.9848 -2.71742,16.3319 0,1.1868 0.86564,1.6681 3,1.6681 2.467,0 2.98647,-0.3998 2.92386,-2.25 z m 19.07614,-9.25 v -23.5 h 11 11 v 4 4 h -7.05226 -7.05226 l 0.30226,5.25 0.30226,5.25 6.75,0.2957 6.75,0.2957 v 3.9543 3.9543 h -7 -7 v 10 10 h -4 -4 z m 33,0 v -23.5 h 4 4 v 23.5 23.5 h -4 -4 z m 25,4 v -19.5 h -4.5 -4.5 v -4 -4 h 13 13 v 4 4 h -4.5 -4.5 v 19.5 19.5 h -4 -4 z"
       id="path433" /><path
       style="fill:#000000;stroke-width:0.789438"
       d="m -101.98124,304.25488 c -1.79457,-0.42506 -6.39114,-2.36908 -10.21462,-4.32005 l -6.95179,-3.54724 -4.0201,3.97017 c -2.65514,2.62215 -4.68174,3.96752 -5.96886,3.96244 -6.29587,-0.025 -19.38991,-10.7531 -23.25307,-19.05169 -2.90226,-6.23443 -2.64666,-7.99384 1.84549,-12.70294 l 3.82966,-4.01459 -3.39222,-6.64798 c -5.60376,-10.98215 -6.29317,-18.20119 -2.20241,-23.06278 1.97907,-2.352 1.98811,-2.42632 0.79495,-6.53611 -4.80542,-16.55207 -4.80542,-38.33897 0,-54.89102 1.19316,-4.10979 1.18412,-4.18413 -0.79495,-6.53611 -4.11745,-4.89331 -3.41339,-11.94397 2.27773,-22.80965 l 3.48928,-6.66188 -3.52112,-3.76435 c -4.18972,-4.47916 -4.4193,-6.45625 -1.44316,-12.42858 4.14343,-8.31479 14.73137,-17.40043 21.75251,-18.66609 2.68223,-0.48352 3.21958,-0.23537 6.85613,3.1662 l 3.94581,3.69084 7.35376,-3.62044 c 11.32289,-5.57454 17.755409,-6.1219 23.045209,-1.96096 l 2.05896,1.61959 6.51887,-1.61965 c 17.42508,-4.32939 31.783267,-4.3063 49.751663,0.08 l 6.918628,1.68892 1.886263,-1.77204 c 4.462389,-4.19221 12.3104311,-3.4992 23.1794201,2.04683 l 6.712876,3.42533 3.8018359,-3.55618 c 2.305903,-2.1569 4.5421,-3.55617 5.683171,-3.55617 3.394161,0 11.72549,4.84675 16.276243,9.46871 4.634828,4.70734 8.216947,10.51379 9.117879,14.77961 0.47937,2.26982 0.134631,2.96805 -3.254384,6.59118 l -3.790562,4.05241 2.611077,4.71346 c 5.95728,10.75397 7.235809,19.40761 3.648402,24.69396 l -1.997464,2.94343 2.155934,9.20567 c 1.889223,8.06688 2.155926,10.81706 2.155926,22.23145 0,11.41435 -0.266703,14.16454 -2.155926,22.23142 l -2.155934,9.20569 2.075585,3.03061 c 1.889926,2.75954 2.04344,3.54961 1.716249,8.83277 -0.307882,4.9713 -0.898555,6.86698 -4.12508,13.2387 l -3.765742,7.43656 4.046949,4.27905 c 2.225832,2.35348 4.046956,4.95408 4.046956,5.77911 0,0.82502 -1.127737,3.75683 -2.506074,6.51515 -4.523889,9.05309 -16.496899,18.92023 -22.958221,18.92023 -1.627973,0 -3.421018,-1.0975 -6.407363,-3.92186 l -4.1467889,-3.92184 -5.952039,3.11888 c -7.063016,3.70102 -14.7829551,5.85426 -18.4934681,5.15815 -1.454574,-0.27289 -3.711177,-1.39356 -5.014676,-2.49036 l -2.36999,-1.99422 -8.113317,2.0778 c -14.641738,3.74971 -33.794708,3.58096 -49.118678,-0.43275 l -6.02346,-1.5777 -2.60882,1.98983 c -3.02255,2.30543 -8.03956,3.05644 -12.833129,1.92105 z m -28.37928,-5.93223 c 4.02416,-1.5442 -1.43021,-11.23977 -9.30736,-16.54453 -4.16161,-2.80261 -8.12702,-3.52786 -8.85904,-1.62025 -1.24856,3.25372 7.14121,13.93487 13.36556,17.0159 3.81218,1.88701 3.2364,1.74923 4.80084,1.14888 z M 23.8065,297.60093 c 6.540638,-2.73286 14.442773,-11.65229 14.442773,-16.30209 0,-1.92014 -0.31014,-2.23299 -2.213762,-2.23299 -6.814367,0 -19.978277,14.64122 -16.70741,18.58238 1.172143,1.41235 0.980135,1.41438 4.478399,-0.0473 z m -67.913358,-3.5824 c 3.396403,-0.45988 7.541745,-1.1933 9.211875,-1.62983 l 3.036608,-0.79371 -4.752454,-4.94919 c -5.471876,-5.69839 -6.364037,-8.43356 -4.847327,-14.86093 1.271873,-5.38977 5.960183,-14.72402 10.464091,-20.83353 l 3.557748,-4.82608 -13.544971,-13.52838 c -7.44973,-7.4406 -13.900433,-13.52838 -14.334883,-13.52838 -0.43446,0 -6.75735,5.97517 -14.05086,13.27816 l -13.26094,13.27817 5.13622,7.68215 c 5.77827,8.6425 8.41517,14.7501 8.97522,20.78843 0.55148,5.94604 -0.17075,7.7976 -5.02782,12.88973 -2.39205,2.50782 -4.06132,4.72946 -3.70946,4.93696 0.55138,0.32521 7.17543,1.50547 13.66546,2.4349 4.30448,0.61643 13.624873,0.4545 19.481493,-0.33847 z m 41.9643651,-4.38997 2.63264502,-1.06483 -1.64584702,-2.09237 c -2.149792,-2.733 -2.067249,-5.28299 0.33828302,-10.45039 3.77214398,-8.10304 16.94132088,-19.02382 22.97407988,-19.05169 0.918378,-0.004 2.573026,0.70279 3.676994,1.57116 1.103967,0.86839 2.212852,1.57889 2.464186,1.57889 0.949008,0 2.846472,-5.84079 2.846472,-8.76204 0,-8.44972 -10.414523,-6.56574 -24.2376869,4.38455 -13.872125,10.98908 -24.0472911,28.35107 -19.7735291,33.73975 1.852245,2.33546 5.2002561,2.38133 10.7244031,0.14697 z m -95.0152481,-0.27984 c 6.00976,-6.64072 -13.075729,-31.89784 -30.964719,-40.97771 -4.55742,-2.31319 -9.61749,-2.92254 -11.64674,-1.4025 -1.98605,1.48767 -2.03727,6.8535 -0.10106,10.59139 l 1.33222,2.57193 2.35998,-1.7448 c 2.16034,-1.59721 2.66084,-1.66434 5.91618,-0.79367 7.71403,2.06319 17.03563,10.30344 20.90285,18.47803 2.77753,5.87117 2.85882,6.87327 0.77266,9.5254 -2.0713,2.63323 -2.02566,2.82436 0.9868,4.1337 3.84428,1.6709 8.746399,1.49167 10.441829,-0.38177 z m 14.55082,-98.37177 -13.88164,-13.88165 -6.640989,4.53591 c -9.61379,6.56641 -15.72182,9.17011 -22.58982,9.62947 l -5.68615,0.38031 -5.09086,-4.88852 c -2.79999,-2.68867 -5.30825,-4.5368 -5.57391,-4.10694 -0.93529,1.51331 -2.82096,16.36171 -2.82096,22.21308 0,5.9044 1.88873,20.70471 2.8383,22.24112 0.27942,0.45212 2.49828,-1.16742 5.02474,-3.66751 5.19068,-5.1365 8.03249,-6.12633 14.36882,-5.00468 5.36852,0.95033 15.48508,5.86826 21.56445,10.48305 l 4.728389,3.58929 13.82065,-13.82065 13.82064,-13.82062 z m 73.6850021,37.87437 c 9.00487002,-6.63595 18.207226,-10.60648 24.7638329,-10.6848 4.963148,-0.0593 6.677462,0.77942 11.837875,5.79141 l 4.035138,3.91908 0.943569,-3.74725 c 2.146225,-8.52344 2.465591,-29.41233 0.558473,-36.52818 -0.190863,-0.71214 -0.574072,-2.31015 -0.851583,-3.55115 l -0.504563,-2.25633 -4.599231,4.38693 c -2.529585,2.41281 -5.564361,4.62915 -6.743958,4.9252 -6.410268,1.60889 -17.4395519,-2.23956 -27.8952289,-9.73345 -3.1804291,-2.2795 -6.0231511,-4.14455 -6.3171551,-4.14455 -0.294002,0 -5.776798,5.23351 -12.183987,11.63002 l -11.649444,11.63001 -6.319853,-6.28277 c -3.475923,-3.45554 -6.319857,-6.64939 -6.319857,-7.09748 0,-0.44807 7.822065,-8.62709 17.382368,-18.17562 l 17.382357,-17.36093 -0.49906,-3.35511 c -0.455601,-3.06299 -0.351039,-3.35512 1.200903,-3.35512 6.6709091,0 21.3876311,15.23424 19.4910991,20.17652 -0.407714,1.0625 -1.153908,1.21751 -3.88749798,0.80757 -2.94417402,-0.44151 -3.62354802,-0.25116 -5.23819602,1.46755 l -1.855268,1.97484 1.892174,1.59707 c 3.43811702,2.90191 12.664149,7.13289 15.5539139,7.13289 10.476905,0 5.8766,-14.63893 -9.4014839,-29.91701 -11.703275,-11.70328 -24.5926831,-17.92424 -28.6764661,-13.84045 -1.894782,1.89477 -1.484983,6.52923 1.051422,11.89067 l 2.290723,4.84212 -3.753869,3.69743 -3.75387,3.69742 -2.436817,-3.80292 c -4.951843,-7.72786 -7.497718,-14.32677 -7.890882,-20.45319 l -0.370562,-5.77414 4.866351,-5.0678 4.866354,-5.06781 -3.524844,-0.88756 c -7.688865,-1.93608 -19.355219,-2.66889 -28.015189,-1.75974 -4.61077,0.48404 -9.73357,1.25404 -11.38398,1.7111 l -3.00076,0.83102 4.34801,4.69636 c 5.00584,5.40691 5.91807,8.36549 4.56636,14.8098 -1.01162,4.82293 -5.76629,14.75782 -8.77658,18.33864 l -2.03067,2.41555 -3.49529,-3.57554 -3.49529,-3.57557 2.20806,-4.50941 c 2.9222,-5.96791 3.46754,-10.08186 1.60873,-12.13582 -6.37203,-7.04102 -31.672119,11.0726 -41.463099,29.68552 -2.65276,5.043 -3.20133,11.2599 -1.14419,12.96718 2.65209,2.20104 12.80346,-0.9601 19.00499,-5.91816 l 2.30348,-1.8416 -1.93668,-2.06787 c -1.68712,-1.8014 -2.35931,-2.00448 -5.21632,-1.57605 -2.46141,0.36912 -3.38826,0.20876 -3.71501,-0.64278 -0.71314,-1.85836 2.23466,-7.39441 6.18744,-11.62027 8.60151,-9.1957 17.383289,-11.81955 14.541349,-4.34469 -0.85311,2.24388 -0.48675,2.63919 39.63422,42.76584 22.272411,22.27556 40.584404,40.50102 40.693315,40.50102 0.108911,0 2.419315,-1.63694 5.1342271,-3.63764 z"
       id="path477"
       inkscape:export-filename="path477.png"
       inkscape:export-xdpi="96"
       inkscape:export-ydpi="96" /><text
       xml:space="preserve"
       style="font-style:normal;font-variant:normal;font-weight:bold;font-stretch:normal;font-size:106.667px;font-family:Ubuntu;-inkscape-font-specification:'Ubuntu, Bold';font-variant-ligatures:normal;font-variant-caps:normal;font-variant-numeric:normal;font-variant-east-asian:normal;opacity:1;fill:#000000"
       x="67.702911"
       y="199.75607"
       id="text583"><tspan
         sodipodi:role="line"
         x="67.702911"
         y="199.75607"
         style="font-style:normal;font-variant:normal;font-weight:bold;font-stretch:normal;font-size:106.667px;font-family:Ubuntu;-inkscape-font-specification:'Ubuntu, Bold';font-variant-ligatures:normal;font-variant-caps:normal;font-variant-numeric:normal;font-variant-east-asian:normal"
         id="tspan805">BAKHAREVAFIT</tspan></text><text
       xml:space="preserve"
       style="font-style:normal;font-variant:normal;font-weight:bold;font-stretch:normal;font-size:93.3333px;font-family:Ubuntu;-inkscape-font-specification:'Ubuntu, Bold';font-variant-ligatures:normal;font-variant-caps:normal;font-variant-numeric:normal;font-variant-east-asian:normal;opacity:1;fill:#000000"
       x="69.702942"
       y="288.45724"
       id="text811"
       inkscape:export-filename="path477.png"
       inkscape:export-xdpi="19.155922"
       inkscape:export-ydpi="19.155922"><tspan
         sodipodi:role="line"
         id="tspan809"
         x="69.702942"
         y="288.45724"
         style="font-style:normal;font-variant:normal;font-weight:bold;font-stretch:normal;font-size:93.3333px;font-family:Ubuntu;-inkscape-font-specification:'Ubuntu, Bold';font-variant-ligatures:normal;font-variant-caps:normal;font-variant-numeric:normal;font-variant-east-asian:normal">вместе к <tspan
   style="fill:#000000;fill-opacity:0.899636"
   id="tspan848">мечте</tspan></tspan></text></g></svg>
